<svg width="48" height="48" viewBox="0 0 48 48" fill="none" xmlns="http://www.w3.org/2000/svg">
<path fill-rule="evenodd" clip-rule="evenodd" d="M42 24C42 33.9411 33.9411 42 24 42C14.0589 42 6 33.9411 6 24C6 14.0589 14.0589 6 24 6C33.9411 6 42 14.0589 42 24ZM24 35C23.4477 35 23 34.5523 23 34V25H14C13.4477 25 13 24.5523 13 24C13 23.4477 13.4477 23 14 23H23V14C23 13.4477 23.4477 13 24 13C24.5523 13 25 13.4477 25 14V23H34C34.5523 23 35 23.4477 35 24C35 24.5523 34.5523 25 34 25H25V34C25 34.5523 24.5523 35 24 35Z" fill="#222222"/>
</svg>
